<svg width="106" height="36" viewBox="0 0 106 36" fill="none" xmlns="http://www.w3.org/2000/svg">
<path d="M17.0764 24.8314L21.1542 31.4781C22.1726 33.1387 21.0275 35.2833 19.0645 35.3664C18.3202 35.397 17.5082 35.4116 16.6269 35.4072C16.6195 35.4072 16.6121 35.4072 16.6048 35.4072C15.6218 35.4072 14.7154 34.8824 14.2291 34.0382C13.0987 32.0788 11.0325 28.4981 10.2278 27.1043C10.0215 26.7471 9.63834 26.527 9.22126 26.527H7.63551C7.56477 26.527 7.50729 26.5838 7.50729 26.6538V31.812C7.50729 33.7962 5.88174 35.4058 3.87597 35.4072H3.8347L0 35.4043V8.66435C2.97845 8.08555 6.12786 7.79688 9.44675 7.79688C17.4979 7.79688 21.5182 10.7507 21.505 16.6567C21.505 20.3701 20.0298 23.095 17.0778 24.8314H17.0764ZM7.50729 14.0937V17.8071C7.50729 19.2898 8.72166 20.4911 10.2205 20.4911C11.4452 20.4911 12.353 20.1879 12.944 19.5828C13.5349 18.9778 13.8312 18.1628 13.8312 17.1408C13.8312 16.1188 13.5217 15.3723 12.9027 14.8197C12.2837 14.2686 11.3759 13.9916 10.1792 13.9916C9.5676 14.0048 8.67598 14.0398 7.50729 14.0922V14.0937Z" fill="#04BD88"/>
<path d="M34.275 14.8608C37.199 14.8608 39.5496 15.6875 41.324 17.3437C43.0984 18.9985 43.9664 21.232 43.9252 24.0444V24.0808C43.9252 25.7545 42.5516 27.1119 40.8598 27.1119H31.1949C31.3585 28.2155 31.7593 28.9853 32.399 29.4227C33.0386 29.8601 34.0304 30.0788 35.3774 30.0788C36.5594 30.0788 37.8327 29.7799 39.1988 29.1821C40.7728 28.494 42.6121 29.2507 43.2089 30.8471C43.2325 30.9098 43.2546 30.9739 43.2767 31.0381C43.6967 32.27 43.0999 33.6259 41.9327 34.2266C39.8016 35.323 37.311 35.8711 34.4578 35.8711C31.1934 35.8711 28.5584 34.9628 26.5526 33.1463C24.5468 31.3297 23.5432 28.7797 23.5432 25.4965C23.5432 22.3882 24.5527 19.8382 26.5732 17.8467C28.5923 15.8551 31.1595 14.8594 34.275 14.8594V14.8608ZM31.1536 23.2571H34.6951C36.4031 23.2571 36.6935 20.8471 35.034 20.4404C34.813 20.3864 34.5727 20.35 34.3148 20.3295C32.5198 20.3295 31.4646 21.3049 31.1522 23.2556L31.1536 23.2571Z" fill="#04BD88"/>
<path d="M63.5629 7.67577C63.5762 7.67577 63.5894 7.67577 63.6027 7.67577C65.6674 7.67868 67.3269 9.3626 67.3269 11.4052V26.6639C67.3269 31.6996 63.2387 35.8518 58.1483 35.8708C58.1144 35.8708 58.0791 35.8708 58.0452 35.8708C54.1147 35.8708 51.1112 34.9698 49.0376 33.1663C46.9626 31.3628 45.9265 28.7794 45.9265 25.4159C45.9265 22.2405 47.0038 19.6877 49.1599 17.7559C51.316 15.8256 54.0115 14.859 57.2493 14.859C58.0968 14.859 58.9383 14.9319 59.7709 15.0762C59.7857 15.0792 59.7989 15.0675 59.7989 15.0529V7.67577L63.5629 7.67285V7.67577ZM57.718 29.6745C58.8675 29.6731 59.7989 28.7502 59.7989 27.613V21.1194L57.8005 21.1165C56.5493 21.1165 55.5118 21.4999 54.6894 22.2668C53.8671 23.0337 53.4559 24.0528 53.4559 25.3241C53.4559 26.5954 53.8538 27.6378 54.6497 28.4528C55.4455 29.2663 56.4683 29.6731 57.7209 29.6731L57.718 29.6745Z" fill="#04BD88"/>
<path d="M87.616 7.67577C87.6293 7.67577 87.6425 7.67577 87.6558 7.67577C89.7205 7.67868 91.38 9.3626 91.38 11.4052V26.6639C91.38 31.6996 87.2918 35.8518 82.2014 35.8708C82.1675 35.8708 82.1322 35.8708 82.0983 35.8708C78.1678 35.8708 75.1643 34.9698 73.0907 33.1663C71.0157 31.3628 69.9796 28.7794 69.9796 25.4159C69.9796 22.2405 71.0569 19.6877 73.213 17.7559C75.3691 15.8256 78.0646 14.859 81.3024 14.859C82.1587 14.859 83.0091 14.9334 83.852 15.0806V7.67577L87.616 7.67285V7.67577ZM81.7711 29.6745H81.7917C82.9309 29.6731 83.852 28.759 83.852 27.6334V21.1194L81.8536 21.1165C80.6024 21.1165 79.5649 21.4999 78.7425 22.2668C77.9202 23.0337 77.509 24.0528 77.509 25.3241C77.509 26.5954 77.9069 27.6378 78.7028 28.4528C79.4986 29.2663 80.5214 29.6731 81.774 29.6731L81.7711 29.6745Z" fill="#04BD88"/>
<path d="M98.6632 15.1641C97.303 15.1641 96.0518 15.2588 94.9096 15.4469V31.6912C94.9096 33.7338 96.5985 35.406 98.6632 35.4075C98.6765 35.4075 98.6898 35.4075 98.7045 35.4075C100.774 35.4046 102.438 33.7163 102.438 31.6693V18.9007C102.438 16.8465 100.74 15.1655 98.6632 15.1641Z" fill="#04BD88"/>
<path d="M105.958 4.91316C105.893 4.71634 105.751 4.5545 105.553 4.45537C105.126 4.24105 104.697 4.36352 104.432 4.77611C104.247 5.06332 104.063 5.352 103.879 5.63921C103.59 6.09117 103.301 6.54313 103.009 6.99363C102.965 7.06215 102.872 7.20503 102.804 7.24294C102.788 7.25169 102.766 7.26043 102.746 7.26772C102.744 7.25897 102.743 7.25169 102.744 7.24731C102.774 6.98488 102.832 6.72391 102.896 6.44836C102.919 6.34631 102.942 6.24571 102.964 6.14365L103.102 5.48613C103.329 4.41163 103.556 3.33859 103.786 2.26555C103.929 1.60073 103.578 1.34267 103.357 1.24645C103.105 1.13856 102.756 1.16189 102.527 1.30331C102.342 1.41703 102.212 1.6328 102.14 1.94626C102.018 2.47841 101.906 3.01347 101.793 3.54853L101.602 4.45828H101.605L101.553 4.70759C101.44 5.24848 101.328 5.78938 101.208 6.32881C101.204 6.34777 101.2 6.36672 101.194 6.38421C101.194 6.35068 101.192 6.31423 101.191 6.27924L101.148 3.8824C101.132 2.94932 101.116 2.0177 101.098 1.08462C101.091 0.686604 100.912 0.360026 100.623 0.209859C100.382 0.0844763 100.103 0.103429 99.8599 0.263802C99.5799 0.447502 99.4281 0.839687 99.4267 1.11378C99.4237 1.98271 99.4414 2.86476 99.4591 3.71765L99.4797 4.75716C99.4827 4.884 99.4856 5.01084 99.4856 5.13768C98.5542 4.66385 97.6095 4.59533 96.6752 4.93648C96.2168 5.10269 95.8071 5.38407 95.4593 5.63338C95.141 5.86082 95.054 6.11741 95.0378 6.29382C95.0157 6.52126 95.0982 6.7487 95.2721 6.9324C95.4004 7.06799 95.8705 7.46892 96.5322 6.90324C97.0554 6.45711 97.7171 6.29965 98.3479 6.47315C98.9536 6.63935 99.4178 7.08548 99.6212 7.69635C99.9454 8.67026 99.4075 9.65874 98.3729 9.99552C97.387 10.3163 96.3583 9.82786 96.0311 8.88166C96.0208 8.85396 96.0134 8.8248 96.0061 8.79564C95.9869 8.73003 95.9678 8.66297 95.9412 8.60028C95.7673 8.18185 95.4151 7.98503 94.9936 8.07104C94.5515 8.16289 94.2951 8.50842 94.3245 8.97059C94.4012 10.1807 95.1439 11.366 96.3082 12.1372C97.0937 12.6577 97.9824 12.9303 98.8313 12.9303C99.2336 12.9303 99.6271 12.8691 99.997 12.7452C100.774 12.4842 101.474 12.0104 102.079 11.3368C102.56 10.8018 102.95 10.3002 103.27 9.80453C103.886 8.85104 104.49 7.86985 105.076 6.92219C105.314 6.53584 105.553 6.14949 105.793 5.76167L105.814 5.7296C105.837 5.69461 105.86 5.65962 105.879 5.62171C106.004 5.38115 106.033 5.13622 105.961 4.91607L105.958 4.91316Z" fill="#04BD88"/>
</svg>
